<svg width="34" height="40" viewBox="0 0 34 40" fill="none" xmlns="http://www.w3.org/2000/svg">
<path d="M24.0467 12.4806C26.7483 14.418 30.0565 15.558 33.6298 15.558V10.1259C31.6352 9.6995 29.8695 8.65346 28.5418 7.19849C26.2694 5.77538 24.6321 3.4276 24.152 0.679688H19.1425V28.2433C19.1312 31.4567 16.5327 34.0586 13.3282 34.0586C11.4399 34.0586 9.76227 33.1552 8.69981 31.7559C6.80257 30.7949 5.50152 28.8221 5.50152 26.5437C5.50152 23.3215 8.10434 20.7089 11.3157 20.7089C11.931 20.7089 12.524 20.805 13.0803 20.9822V15.4907C6.18399 15.6337 0.637695 21.2886 0.637695 28.2435C0.637695 31.7153 2.01885 34.8626 4.26048 37.1622C6.28275 38.5249 8.71718 39.3197 11.3364 39.3197C18.3561 39.3197 24.0468 33.6087 24.0468 26.5638V12.4806H24.0467Z" fill="#1E1E1E"/>
</svg>
